<svg width="77" height="77" viewBox="0 0 77 77" fill="none" xmlns="http://www.w3.org/2000/svg">
<path d="M36.25 1.87598C37.6422 1.07226 39.3578 1.07227 40.75 1.87598L69.0918 18.2393C70.4841 19.0431 71.3418 20.529 71.3418 22.1367V54.8633C71.3418 56.471 70.4841 57.9569 69.0918 58.7607L40.75 75.124C39.3578 75.9277 37.6422 75.9277 36.25 75.124L7.9082 58.7607C6.51591 57.9569 5.65821 56.471 5.6582 54.8633V22.1367C5.65821 20.529 6.51591 19.0431 7.9082 18.2393L36.25 1.87598Z" stroke="white" stroke-opacity="0.5"/>
<path d="M44.3078 25.9922C46.1391 25.9922 47.7068 26.6443 49.011 27.9484C50.3151 29.2525 50.9671 30.8202 50.9671 32.6516C50.9671 32.9568 50.9463 33.366 50.9047 33.8794C50.8631 34.3927 50.8007 34.9823 50.7174 35.6483L48.4283 52.4215C48.2895 53.4759 47.8109 54.3361 46.9923 55.002C46.1738 55.668 45.2373 56.0009 44.1829 56.0009C43.5447 56.0009 42.9551 55.8622 42.414 55.5847C41.8729 55.3073 41.4221 54.9188 41.0613 54.4193L36.6079 47.9265C36.5524 47.8155 36.4622 47.7392 36.3373 47.6976C36.2125 47.6559 36.0807 47.6351 35.9419 47.6351C35.831 47.6351 35.609 47.76 35.276 48.0097L30.9474 54.2945C30.559 54.8494 30.0803 55.2726 29.5115 55.5639C28.9427 55.8553 28.3392 56.0009 27.701 56.0009C26.6466 56.0009 25.7171 55.661 24.9124 54.9812C24.1077 54.3014 23.636 53.4343 23.4973 52.3799L21.2497 35.6483C21.1665 34.9823 21.1041 34.3927 21.0624 33.8794C21.0208 33.366 21 32.9568 21 32.6516C21 30.8202 21.6521 29.2525 22.9562 27.9484C24.2603 26.6443 25.828 25.9922 27.6594 25.9922C28.6583 25.9922 29.456 26.124 30.0526 26.3876C30.6491 26.6512 31.2249 26.9356 31.7798 27.2408C32.3348 27.546 32.9244 27.8304 33.5487 28.094C34.1731 28.3576 34.9847 28.4894 35.9836 28.4894C36.9825 28.4894 37.7941 28.3576 38.4184 28.094C39.0427 27.8304 39.6323 27.546 40.1873 27.2408C40.7422 26.9356 41.3249 26.6512 41.9354 26.3876C42.5458 26.124 43.3366 25.9922 44.3078 25.9922ZM44.3078 29.3219C43.6696 29.3219 43.1077 29.4537 42.6221 29.7173C42.1365 29.9809 41.6024 30.2653 41.0197 30.5705C40.437 30.8757 39.7572 31.1601 38.9803 31.4237C38.2034 31.6873 37.2045 31.8191 35.9836 31.8191C34.7627 31.8191 33.7638 31.6873 32.9869 31.4237C32.2099 31.1601 31.5301 30.8757 30.9474 30.5705C30.3647 30.2653 29.8306 29.9809 29.345 29.7173C28.8594 29.4537 28.2976 29.3219 27.6594 29.3219C26.7437 29.3219 25.9598 29.6479 25.3078 30.3C24.6557 30.952 24.3297 31.7359 24.3297 32.6516C24.3297 32.8735 24.3436 33.1926 24.3713 33.6088C24.3991 34.025 24.4545 34.5106 24.5378 35.0656L26.8269 51.9221C26.8547 52.1441 26.9518 52.3175 27.1183 52.4424C27.2848 52.5672 27.479 52.6296 27.701 52.6296C27.8397 52.6296 27.9646 52.6019 28.0756 52.5464C28.1866 52.4909 28.2698 52.4077 28.3253 52.2967L32.529 46.1368C32.9175 45.5818 33.4169 45.1379 34.0274 44.8049C34.6378 44.4719 35.2899 44.3054 35.9836 44.3054C36.6773 44.3054 37.3293 44.4719 37.9398 44.8049C38.5502 45.1379 39.0497 45.5818 39.4381 46.1368L43.7251 52.4215C43.7806 52.5048 43.8499 52.5672 43.9332 52.6088C44.0164 52.6505 44.1135 52.6713 44.2245 52.6713C44.4465 52.6713 44.6477 52.6088 44.828 52.484C45.0084 52.3591 45.1124 52.1857 45.1402 51.9637L47.4294 35.0656C47.5126 34.5106 47.5681 34.025 47.5958 33.6088C47.6236 33.1926 47.6375 32.8735 47.6375 32.6516C47.6375 31.7359 47.3114 30.952 46.6594 30.3C46.0073 29.6479 45.2234 29.3219 44.3078 29.3219Z" fill="white"/>
<path d="M47.4374 21.3519L46.9712 23.3275L48.7471 22.2842L50.5229 23.3275L50.0567 21.3519L51.6328 20.0422L49.5462 19.8646L48.7471 18L47.9479 19.8646L45.8613 20.0422L47.4374 21.3519Z" fill="white"/>
<path d="M55.1471 28.3559L54.5016 31.3194L56.9605 29.7544L59.4193 31.3194L58.7739 28.3559L60.9561 26.3914L58.0669 26.1251L56.9605 23.3281L55.854 26.1251L52.9648 26.3914L55.1471 28.3559Z" fill="white"/>
</svg>
