<svg width="77" height="77" viewBox="0 0 77 77" fill="none" xmlns="http://www.w3.org/2000/svg">
<path d="M36.25 1.87598C37.6422 1.07226 39.3578 1.07227 40.75 1.87598L69.0918 18.2393C70.4841 19.0431 71.3418 20.529 71.3418 22.1367V54.8633C71.3418 56.471 70.4841 57.9569 69.0918 58.7607L40.75 75.124C39.3578 75.9277 37.6422 75.9277 36.25 75.124L7.9082 58.7607C6.51591 57.9569 5.65821 56.471 5.6582 54.8633V22.1367C5.65821 20.529 6.51591 19.0431 7.9082 18.2393L36.25 1.87598Z" stroke="white" stroke-opacity="0.5"/>
<path d="M48.25 22C50.3125 22 52.0781 22.7344 53.5469 24.2031C55.0156 25.6719 55.75 27.4375 55.75 29.5C55.75 29.8438 55.7266 30.3047 55.6797 30.8828C55.6328 31.4609 55.5625 32.125 55.4688 32.875L52.8906 51.7656C52.7344 52.9531 52.1953 53.9219 51.2734 54.6719C50.3516 55.4219 49.2969 55.7969 48.1094 55.7969C47.3906 55.7969 46.7266 55.6406 46.1172 55.3281C45.5078 55.0156 45 54.5781 44.5938 54.0156L39.5781 46.7031C39.5156 46.5781 39.4141 46.4922 39.2734 46.4453C39.1328 46.3984 38.9844 46.375 38.8281 46.375C38.7031 46.375 38.4531 46.5156 38.0781 46.7969L33.2031 53.875C32.7656 54.5 32.2266 54.9766 31.5859 55.3047C30.9453 55.6328 30.2656 55.7969 29.5469 55.7969C28.3594 55.7969 27.3125 55.4141 26.4062 54.6484C25.5 53.8828 24.9688 52.9062 24.8125 51.7188L22.2812 32.875C22.1875 32.125 22.1172 31.4609 22.0703 30.8828C22.0234 30.3047 22 29.8438 22 29.5C22 27.4375 22.7344 25.6719 24.2031 24.2031C25.6719 22.7344 27.4375 22 29.5 22C30.625 22 31.5234 22.1484 32.1953 22.4453C32.8672 22.7422 33.5156 23.0625 34.1406 23.4062C34.7656 23.75 35.4297 24.0703 36.1328 24.3672C36.8359 24.6641 37.75 24.8125 38.875 24.8125C40 24.8125 40.9141 24.6641 41.6172 24.3672C42.3203 24.0703 42.9844 23.75 43.6094 23.4062C44.2344 23.0625 44.8906 22.7422 45.5781 22.4453C46.2656 22.1484 47.1562 22 48.25 22ZM48.25 25.75C47.5312 25.75 46.8984 25.8984 46.3516 26.1953C45.8047 26.4922 45.2031 26.8125 44.5469 27.1562C43.8906 27.5 43.125 27.8203 42.25 28.1172C41.375 28.4141 40.25 28.5625 38.875 28.5625C37.5 28.5625 36.375 28.4141 35.5 28.1172C34.625 27.8203 33.8594 27.5 33.2031 27.1562C32.5469 26.8125 31.9453 26.4922 31.3984 26.1953C30.8516 25.8984 30.2188 25.75 29.5 25.75C28.4688 25.75 27.5859 26.1172 26.8516 26.8516C26.1172 27.5859 25.75 28.4688 25.75 29.5C25.75 29.75 25.7656 30.1094 25.7969 30.5781C25.8281 31.0469 25.8906 31.5938 25.9844 32.2188L28.5625 51.2031C28.5938 51.4531 28.7031 51.6484 28.8906 51.7891C29.0781 51.9297 29.2969 52 29.5469 52C29.7031 52 29.8438 51.9688 29.9688 51.9062C30.0938 51.8438 30.1875 51.75 30.25 51.625L34.9844 44.6875C35.4219 44.0625 35.9844 43.5625 36.6719 43.1875C37.3594 42.8125 38.0938 42.625 38.875 42.625C39.6562 42.625 40.3906 42.8125 41.0781 43.1875C41.7656 43.5625 42.3281 44.0625 42.7656 44.6875L47.5938 51.7656C47.6562 51.8594 47.7344 51.9297 47.8281 51.9766C47.9219 52.0234 48.0312 52.0469 48.1562 52.0469C48.4062 52.0469 48.6328 51.9766 48.8359 51.8359C49.0391 51.6953 49.1562 51.5 49.1875 51.25L51.7656 32.2188C51.8594 31.5938 51.9219 31.0469 51.9531 30.5781C51.9844 30.1094 52 29.75 52 29.5C52 28.4688 51.6328 27.5859 50.8984 26.8516C50.1641 26.1172 49.2812 25.75 48.25 25.75Z" fill="white"/>
<path d="M33 36H45L42 40.2V53L39 56L36 53V40.2L33 36ZM38 44H40V39.6L41 38H37L38 39.6V44ZM40 46H38V48H40V46ZM40 52V50H38V52L39 53L40 52Z" fill="white"/>
</svg>
